<?xml version="1.0" encoding="UTF-8"?>
<svg id="Ebene_1" xmlns="http://www.w3.org/2000/svg" version="1.1" xmlns:xlink="http://www.w3.org/1999/xlink" viewBox="0 0 64 64">
  <!-- Generator: Adobe Illustrator 29.3.1, SVG Export Plug-In . SVG Version: 2.1.0 Build 151)  -->
  <defs>
    <style>
      .st0 {
        fill: #29abe2;
      }

      .st1 {
        fill: #2a3647;
      }

      .st2, .st3 {
        fill: #fff;
      }

      .st3 {
        display: none;
      }
    </style>
  </defs>
  <circle class="st2" cx="32" cy="32" r="31"/>
  <g id="d7dbcda8-841d-4bcb-854a-4245ac71bf91">
    <rect class="st3" x="-502.8" y="-507.8" width="1080" height="1080" vector-effect="non-scaling-stroke"/>
  </g>
  <g>
    <path class="st1" d="M38.9,5h-9.1v10.4h9.1V5Z" vector-effect="non-scaling-stroke"/>
    <path class="st1" d="M29.8,24h9.1v14.7c0,3.5-1,7-2.9,10-1.9,2.9-5.6,6.3-12.4,6.3s-11.7-3.5-14.1-5.4l5.7-7.1c2.3,1.9,4.5,3.4,8.4,3.4s4.1-1.2,4.8-2.3c.9-1.5,1.4-3.2,1.4-4.9v-14.8Z" vector-effect="non-scaling-stroke"/>
    <path class="st0" d="M25.2,17.4h-9.1v9.1h9.1v-9.1Z" vector-effect="non-scaling-stroke"/>
    <path class="st1" d="M43.6,50.7c0,1.9-1,3-2.4,3s-2.3-1.2-2.3-2.9.9-3,2.4-3c1.4,0,2.3,1.3,2.3,2.9ZM40,50.8c0,1.2.5,2,1.3,2s1.3-.9,1.3-2.1-.4-2-1.3-2c-.8,0-1.3,1-1.3,2.1Z" vector-effect="non-scaling-stroke"/>
    <path class="st1" d="M45.4,47.9v5.7h-1v-5.7h1Z" vector-effect="non-scaling-stroke"/>
    <path class="st1" d="M46.5,53.6v-5.7h1.1l1.2,2.3c.3.6.6,1.2.8,1.9,0-.7,0-1.5,0-2.4v-1.8h.9v5.7h-1l-1.2-2.4c-.3-.6-.6-1.3-.9-1.9,0,.7,0,1.5,0,2.5v1.8h-.9Z" vector-effect="non-scaling-stroke"/>
  </g>
</svg>